<svg width="250" height="351" viewBox="0 0 250 351" fill="none" xmlns="http://www.w3.org/2000/svg">
<path d="M249.163 194.662C249.163 264.847 189.997 339.66 124.581 350.493C64.1656 344.66 0 264.847 0 194.662C0 124.477 55.777 67.5811 124.581 67.5811C193.386 67.5811 249.163 124.477 249.163 194.662Z" fill="#FF8A3D"/>
<circle cx="124.998" cy="197.579" r="41.666" fill="white"/>
<path d="M160.414 44.6648C160.414 60.7728 164.997 60.0812 125.415 57.1646C79.1654 60.9145 88.7486 57.4395 88.7486 41.3315C88.7486 25.2235 108.89 1.74881 124.998 1.74881C141.106 1.74881 160.414 28.5567 160.414 44.6648Z" fill="#339F46"/>
<path d="M198.794 49.107C193.285 64.2436 182.767 71.8889 167.497 66.3311C144.164 56.7479 130.738 54.8015 136.248 39.6649C141.757 24.5283 166.226 6.215 181.362 11.7243C196.499 17.2335 204.304 33.9703 198.794 49.107Z" fill="#339F46"/>
<path d="M107.289 29.1561C112.498 59.6646 104.521 58.0978 89.2514 63.6555C72.558 70.1748 57.984 64.2435 52.4747 49.1069C46.9655 33.9703 54.77 17.2335 69.9066 11.7243C85.0432 6.21498 101.78 14.0195 107.289 29.1561Z" fill="#339F46"/>
</svg>
